Coordinates
version=1
nRows=13
nColumns=40
inDegrees=yes

Units are S.I. units (second, meters, Newtons, ...)
Angles are in degrees.

endheader
time	pelvis_tilt	pelvis_list	pelvis_rotation	pelvis_tx	pelvis_ty	pelvis_tz	hip_flexion_r	hip_adduction_r	hip_rotation_r	knee_angle_r	knee_angle_r_beta	ankle_angle_r	subtalar_angle_r	mtp_angle_r	hip_flexion_l	hip_adduction_l	hip_rotation_l	knee_angle_l	knee_angle_l_beta	ankle_angle_l	subtalar_angle_l	mtp_angle_l	lumbar_extension	lumbar_bending	lumbar_rotation	arm_flex_r	arm_add_r	arm_rot_r	elbow_flex_r	pro_sup_r	wrist_flex_r	wrist_dev_r	arm_flex_l	arm_add_l	arm_rot_l	elbow_flex_l	pro_sup_l	wrist_flex_l	wrist_dev_l
     31.07792857	     -4.05072155	     -4.55391055	      6.34064924	      0.90758136	      0.92201757	      0.48781366	      2.22743239	      3.59708568	    -16.00571091	     13.55199353	     13.55199353	     16.93371535	      0.53546750	     -5.05110211	     30.80508841	     -6.47023398	     -2.01385131	     18.58333613	     18.58333613	      5.40691659	     -5.64595526	      5.44751567	     -8.82091575	      5.88318942	      3.06271677	     34.04960337	    -15.16241669	      2.00573901	     82.30638578	     44.40597461	      0.00000000	      0.00000000	     -5.32259524	     -8.02693025	     -6.72695355	     31.82488579	     45.88335465	      0.00000000	      0.00000000
     31.09085714	     -3.97926446	     -4.69615822	      6.27161887	      0.90879372	      0.92091833	      0.48644771	      1.52989638	      3.74452356	    -15.90893157	     13.39966571	     13.39966571	     17.34164271	      0.69668969	     -4.86201266	     30.58724103	     -6.52725822	     -1.77536916	     19.47765643	     19.47765643	      4.61574600	     -6.59302154	      5.06052254	     -8.62252901	      5.97615620	      3.00052364	     34.19582006	    -14.87409611	      2.32550450	     83.07790928	     44.38124750	      0.00000000	      0.00000000	     -5.52449356	     -8.11911000	     -6.71123262	     31.90353628	     45.87690959	      0.00000000	      0.00000000
     31.10378571	     -3.94397409	     -4.70182064	      6.12398291	      0.91018763	      0.91990847	      0.48492647	      0.87319291	      3.70273812	    -15.76596449	     13.32920623	     13.32920623	     17.95123245	      0.98236159	     -4.13293728	     30.15356490	     -6.40792153	     -1.41866044	     19.98190934	     19.98190934	      3.39413813	     -7.87735254	      3.83991557	     -8.40010994	      5.88278387	      3.18673540	     34.02027689	    -14.98042809	      2.96516729	     84.11311172	     44.36048058	      0.00000000	      0.00000000	     -5.75452121	     -8.22138588	     -6.70724783	     32.37685222	     45.86894088	      0.00000000	      0.00000000
     31.11671429	     -3.90079776	     -4.64585021	      5.92780522	      0.91158553	      0.91898871	      0.48338937	      0.27596049	      3.56975465	    -15.52678911	     13.37051420	     13.37051420	     18.29549992	      1.06527910	     -4.15699368	     29.82973716	     -6.34592933	     -1.46889918	     20.75678646	     20.75678646	      3.02661534	     -8.23533390	      3.77134570	     -8.17339256	      5.70991261	      3.35884485	     33.96473744	    -14.79779833	      3.05908636	     84.17136873	     44.35850103	      0.00000000	      0.00000000	     -5.77937681	     -8.32107917	     -6.72204533	     32.37731111	     45.87032421	      0.00000000	      0.00000000
     31.12964286	     -3.85553777	     -4.62262315	      5.78056004	      0.91299904	      0.91815548	      0.48162603	     -0.32179450	      3.45791702	    -15.34661509	     13.40946531	     13.40946531	     18.59274060	      1.11618651	     -4.10283239	     29.59302816	     -6.25992114	     -1.29492621	     21.62292142	     21.62292142	      2.81905485	     -8.73823218	      3.60917975	     -7.97168654	      5.58886517	      3.44153134	     33.82748330	    -14.65402169	      3.17940059	     84.26318027	     44.35476441	      0.00000000	      0.00000000	     -5.78149035	     -8.40478697	     -6.74121149	     32.40413653	     45.87251436	      0.00000000	      0.00000000
     31.14257143	     -3.87385911	     -4.71012539	      5.68148359	      0.91428076	      0.91737356	      0.47973164	     -0.77705788	      3.44375929	    -15.18953406	     13.54795564	     13.54795564	     18.90667266	      1.10036285	     -3.73095267	     29.49888118	     -6.19013965	     -0.77404353	     22.48906829	     22.48906829	      2.62872157	     -9.65235636	      3.28229600	     -7.72620276	      5.60787507	      3.47933997	     33.66459482	    -14.66972723	      3.38794975	     84.52308472	     44.34963144	      0.00000000	      0.00000000	     -5.77037838	     -8.44570358	     -6.78397659	     32.52727454	     45.87710208	      0.00000000	      0.00000000
     31.15550000	     -3.87586531	     -4.59165455	      5.53093711	      0.91561795	      0.91704069	      0.47774388	     -1.24418256	      3.18115753	    -14.98856549	     13.72253835	     13.72253835	     19.07464517	      1.06746478	     -3.67847055	     29.18789049	     -5.98788440	     -0.62022425	     23.05546688	     23.05546688	      2.81785798	     -9.98489044	      3.07269875	     -7.53571134	      5.36786041	      3.49651153	     33.30609024	    -14.55554776	      3.52320559	     84.48918646	     44.34706383	      0.00000000	      0.00000000	     -5.71181605	     -8.50551285	     -6.80314269	     32.56354388	     45.88030185	      0.00000000	      0.00000000
     31.16842857	     -3.77923979	     -4.50491827	      5.42032444	      0.91684364	      0.91702058	      0.47564796	     -1.65896134	      2.92064531	    -14.79682924	     14.17398299	     14.17398299	     19.19590608	      0.90031284	     -3.56700599	     28.93317673	     -5.80743795	     -0.39038596	     23.85138125	     23.85138125	      3.08192180	    -10.56633762	      2.80141329	     -7.50023606	      5.13439714	      3.49814116	     32.82438500	    -14.50927157	      3.68671277	     84.40395432	     44.34588543	      0.00000000	      0.00000000	     -5.58667576	     -8.59550827	     -6.83692826	     32.62933786	     45.88636411	      0.00000000	      0.00000000
     31.18135714	     -3.85402659	     -4.46297786	      5.27926420	      0.91771878	      0.91694373	      0.47350908	     -1.54340736	      2.61785788	    -14.47870394	     15.23029080	     15.23029080	     19.41469937	      0.35514139	     -3.28766905	     28.85013097	     -5.61197210	     -0.01608635	     24.55582961	     24.55582961	      3.40212118	    -11.42549448	      2.52451073	     -7.34401926	      4.99200135	      3.59556982	     32.41210528	    -14.71301207	      3.88129907	     84.31611789	     44.34926607	      0.00000000	      0.00000000	     -5.35284269	     -8.64520520	     -6.90100816	     32.76353590	     45.89737357	      0.00000000	      0.00000000
     31.19428571	     -3.90206085	     -4.34056999	      5.13235476	      0.91856574	      0.91725564	      0.47132443	     -1.33801895	      2.20675550	    -14.12922563	     16.49357806	     16.49357806	     19.53919132	     -0.31879359	     -3.03641554	     28.58711220	     -5.36523420	      0.18843752	     25.00543990	     25.00543990	      3.86342564	    -12.02348790	      2.28162780	     -7.22356057	      4.73799969	      3.64550887	     31.81745043	    -14.85025803	      4.09224139	     84.11191353	     44.35619914	      0.00000000	      0.00000000	     -5.08627648	     -8.68797218	     -6.96089757	     32.85783652	     45.90801647	      0.00000000	      0.00000000
     31.20721429	     -3.96453040	     -4.24028479	      4.98396000	      0.91928195	      0.91780363	      0.46913603	     -0.90763114	      1.78816655	    -13.71647988	     18.10633693	     18.10633693	     19.57064321	     -1.22392248	     -2.77608003	     28.28761127	     -5.15580063	      0.32097134	     25.34753810	     25.34753810	      4.39500933	    -12.48044827	      2.08431154	     -7.13386198	      4.49145519	      3.66392314	     31.06204227	    -14.97007820	      4.31876113	     83.75761814	     44.37298474	      0.00000000	      0.00000000	     -4.76873702	     -8.71989214	     -7.03279160	     32.90252001	     45.91988837	      0.00000000	      0.00000000
     31.22014286	     -3.74453304	     -4.27659785	      4.91712019	      0.92020707	      0.91899717	      0.46692451	     -0.89741786	      1.54620345	    -13.62268499	     19.46373959	     19.46373959	     19.30369714	     -1.70129935	     -2.87200172	     27.62198763	     -5.12453235	      0.42105089	     25.56832213	     25.56832213	      5.05543542	    -12.65773484	      1.83013213	     -7.34412048	      4.44455094	      3.49396931	     30.18635968	    -14.88797492	      4.49313380	     83.40315912	     44.37876875	      0.00000000	      0.00000000	     -4.50304966	     -8.76029649	     -7.04971082	     32.97910503	     45.92557473	      0.00000000	      0.00000000
     31.23307143	     -3.96254667	     -3.98158217	      4.63582773	      0.92048331	      0.91945222	      0.46483237	      0.41976569	      0.74765993	    -13.05820849	     22.36659093	     22.36659093	     19.12363239	     -3.16865351	     -3.40824578	     27.33073386	     -4.81406518	      0.03601511	     25.66970409	     25.66970409	      5.64149468	    -12.75751309	      1.59465989	     -7.14396572	      3.96164107	      3.60950242	     29.49734846	    -15.05900783	      4.63106701	     82.76572195	     44.40173193	      0.00000000	      0.00000000	     -4.07724883	     -8.84433761	     -7.09833330	     33.11496976	     45.93698871	      0.00000000	      0.00000000
